# xmcd
#
# Track frame offsets:
#	150
#	18408
#	37120
#	55987
#	73314
#	90117
#	107586
#	127943
#	149926
#	167050
#	184153
#	203292
#	220921
#	240116
#	264183
#	277343
#	293390
#	313075
#
# Disc length: 4445
#
# Revision: 1
# Processed by: cddbd v1.5.1PL0 Copyright (c) Steve Scherf et al.
# Submitted via: ACXtractor (MTCDDB.DLL V2003.07.15)
# Normalized: r0:TDELIM( - )
#
DISCID=04115b12
DTITLE=Various Artist - Gambling Hall (Leave Guns At The Bar)
DYEAR=2004
DGENRE=Country
TTITLE0=Tim McGraw - Unbroken
TTITLE1=Toby Keith - I Love This Bar
TTITLE2=Mongomery Gentry - My Town
TTITLE3=Lee Ann Womack - Somthing Worth Leaving Behind
TTITLE4=Buddy Jewel - Pour Out The Rain
TTITLE5=Lonestar - Walking In Memphis
TTITLE6=Brooks and Dunn - Only In America
TTITLE7=Mongomery Gentry - Hell Yeah
TTITLE8=Billy Currington - Walk A Little Straighter
TTITLE9=Brad Paisley - We Danced
TTITLE10=Martina McBride - Concrete Angels
TTITLE11=Johnny Cash - I Hung My Head
TTITLE12=Lynn Moris - Momas Hands
TTITLE13=Keith Urban - Somebody Like You
TTITLE14=Alan Jackson - It Must Be Love
TTITLE15=Toby Keith - Should Have Been A Cowboy
TTITLE16=Pam Tillis - No Two Ways About
TTITLE17=Lonestar - I'm Already There
EXTD=ID3G:   2 YEAR: 2004
EXTT0=
EXTT1=
EXTT2=
EXTT3=
EXTT4=
EXTT5=
EXTT6=
EXTT7=
EXTT8=
EXTT9=
EXTT10=
EXTT11=
EXTT12=
EXTT13=
EXTT14=
EXTT15=
EXTT16=
EXTT17=
PLAYORDER=
